<svg width="306" height="60" viewBox="0 0 306 60" fill="none" xmlns="http://www.w3.org/2000/svg">
<g clip-path="url(#clip0_7_33)">
<path d="M50.3168 16.8608C48.908 13.2284 46.674 9.97333 43.791 7.35267C38.1009 2.33822 30.6996 -0.294523 23.121 5.64523e-05H5.04944C4.38525 -0.00386219 3.72709 0.124006 3.1127 0.376374C2.49831 0.628742 1.94012 1.00034 1.47046 1.47C1.00079 1.93966 0.628836 2.49786 0.376467 3.11225C0.124099 3.72664 -0.00376885 4.38515 0.000149786 5.04934C-0.00374255 5.71492 0.124094 6.37473 0.376107 6.99077C0.62812 7.6068 0.999385 8.16677 1.46865 8.63878C1.93792 9.11079 2.49562 9.48546 3.11018 9.74106C3.72473 9.99666 4.38385 10.1282 5.04944 10.1282H23.1801C25.2765 10.1371 27.3657 10.3747 29.4106 10.8368C31.5768 11.3627 33.5959 12.3722 35.3163 13.7897C37.2185 15.3726 38.6995 17.4014 39.6274 19.6955C40.8589 22.843 41.432 26.2101 41.3107 29.5878C41.4372 32.9564 40.8639 36.3144 39.6274 39.4503C38.6922 41.7326 37.2242 43.7576 35.3459 45.3561C33.6468 46.8061 31.6196 47.8197 29.4402 48.3089C27.3694 48.7985 25.2488 49.0462 23.121 49.0471H12.9928C12.5073 49.0471 12.0414 48.8541 11.6981 48.5108C11.3547 48.1674 11.1621 47.7019 11.1621 47.2164V19.8137C11.1621 18.4667 10.627 17.1749 9.67447 16.2224C8.72198 15.27 7.42989 14.7348 6.08287 14.7348H4.99032C4.32473 14.7348 3.66598 14.8664 3.05142 15.122C2.43687 15.3776 1.87881 15.7522 1.40954 16.2242C0.94027 16.6963 0.569005 17.2562 0.316992 17.8723C0.0649788 18.4883 -0.0628576 19.1481 -0.0589652 19.8137V53.9194C-0.0628576 54.585 0.0649788 55.2448 0.316992 55.8609C0.569005 56.4769 0.94027 57.0369 1.40954 57.5089C1.87881 57.9809 2.43687 58.3556 3.05142 58.6112C3.66598 58.8668 4.32473 58.9983 4.99032 58.9983H23.0619C26.9785 59.0389 30.8734 58.4097 34.5781 57.138C37.9713 55.9772 41.0877 54.1275 43.7319 51.7048C46.6149 49.0841 48.8492 45.8287 50.258 42.1963C53.2109 34.1107 53.2109 25.2416 50.258 17.156L50.3168 16.8608Z" fill="#01013F"/>
</g>
<g clip-path="url(#clip1_7_33)">
<path d="M79.142 58.644C77.654 58.644 76.227 58.0528 75.1748 57.0006C74.1227 55.9485 73.5315 54.5214 73.5315 53.0334V5.61021C73.5315 4.12223 74.1227 2.69518 75.1748 1.64302C76.227 0.590855 77.654 5.34058e-05 79.142 5.34058e-05C79.8788 5.34058e-05 80.6082 0.144884 81.2889 0.426835C81.9696 0.708786 82.5882 1.12204 83.1092 1.64302C83.6302 2.164 84.0434 2.78264 84.3254 3.46333C84.6073 4.14402 84.7525 4.87344 84.7525 5.61021V53.0334C84.7525 53.7702 84.6073 54.4996 84.3254 55.1803C84.0434 55.861 83.6302 56.4797 83.1092 57.0006C82.5882 57.5216 81.9696 57.9349 81.2889 58.2168C80.6082 58.4988 79.8788 58.644 79.142 58.644Z" fill="#01013F"/>
</g>
<mask id="mask0_7_33" style="mask-type:luminance" maskUnits="userSpaceOnUse" x="105" y="0" width="48" height="60">
<path d="M143.569 26.6745C145.011 26.1076 146.514 25.7018 148.048 25.4647V5.69561L135.177 18.3944L143.569 26.6745ZM110.507 25.5066C112.017 25.7581 113.494 26.1743 114.912 26.7474L123.378 18.3956L110.507 5.69561V25.5054V25.5066ZM131.702 19.6838C131.377 19.3465 131.192 18.9025 131.18 18.4377C131.169 17.9729 131.333 17.5205 131.64 17.1682L148.517 0.5175C148.78 0.245169 149.129 0.0685927 149.506 0.0164639C149.884 -0.035665 150.268 0.0397194 150.597 0.230368H150.603L150.635 0.248582L150.64 0.252221L150.666 0.26922L150.675 0.274681C150.708 0.296535 150.741 0.318996 150.773 0.343278L150.783 0.35117L150.807 0.369384L150.815 0.376061L150.84 0.396698C150.906 0.452432 150.968 0.513333 151.024 0.578812L151.045 0.602488L151.051 0.61038L151.069 0.634663L151.077 0.644378L151.084 0.651662L151.104 0.677761L151.128 0.711759L151.149 0.742112L151.156 0.751219L151.173 0.777926L151.176 0.784602L151.194 0.812531L151.199 0.821023L151.216 0.84956V0.853806C151.356 1.10132 151.43 1.38045 151.429 1.66421V27.1244C151.428 27.5425 151.268 27.9451 150.981 28.2529C150.694 28.5607 150.301 28.7515 149.879 28.7877C149.588 28.8114 149.321 28.8241 149.027 28.8526L148.955 28.8623H148.946C146.571 29.1862 144.29 29.9914 142.246 31.2273C140.202 32.4633 138.44 34.1032 137.069 36.044C135.699 37.9847 134.751 40.1843 134.284 42.5043C133.817 44.8242 133.842 47.2144 134.357 49.5244C134.426 49.8279 134.502 50.1272 134.585 50.4247L148.72 36.4765L145.134 32.9387C146.272 32.4022 147.472 32.0015 148.707 31.7452L152.308 35.297C152.625 35.6102 152.803 36.0347 152.803 36.4771C152.803 36.9196 152.625 37.344 152.308 37.6572L130.471 59.1971C130.314 59.3521 130.128 59.4751 129.923 59.559C129.718 59.6429 129.498 59.6861 129.276 59.6861C129.054 59.6861 128.834 59.6429 128.629 59.559C128.423 59.4751 128.237 59.3521 128.08 59.1971L106.248 37.6566C106.091 37.5017 105.966 37.3177 105.881 37.1152C105.796 36.9127 105.752 36.6957 105.752 36.4765C105.752 36.2574 105.796 36.0403 105.881 35.8379C105.966 35.6354 106.091 35.4514 106.248 35.2964L109.798 31.7986C110.972 32.0648 112.112 32.4617 113.195 32.9818L113.318 33.0425L109.836 36.4778L123.775 50.2298C123.864 49.9014 123.941 49.5699 124.011 49.233C124.237 48.1116 124.349 46.9708 124.346 45.8275C124.345 41.8689 122.954 38.0329 120.41 34.9719C117.866 31.911 114.326 29.8143 110.391 29.0384C110.022 28.9649 109.641 28.9042 109.26 28.8563L109.225 28.8514C109.074 28.8326 108.902 28.8089 108.756 28.7974C108.319 28.7805 107.906 28.5975 107.602 28.2867C107.299 27.9759 107.129 27.5614 107.128 27.1298V1.66907C107.128 1.33627 107.228 1.01101 107.417 0.735131C107.606 0.45925 107.874 0.245352 108.186 0.120941C108.499 -0.00347019 108.843 -0.0327046 109.173 0.0369902C109.502 0.106685 109.804 0.272122 110.037 0.512039L126.88 17.1287C127.088 17.3345 127.239 17.5906 127.316 17.8714C127.393 18.1522 127.394 18.448 127.32 18.7295C127.274 19.0975 127.105 19.4397 126.838 19.7008L118.075 28.3482C121.61 30.5253 124.403 33.6973 126.094 37.4552C127.785 41.2132 128.297 45.3848 127.562 49.4321C127.641 49.7896 127.841 50.1098 128.129 50.3397C128.417 50.5697 128.777 50.6955 129.147 50.6964C129.518 50.6973 129.878 50.5733 130.167 50.3448C130.457 50.1163 130.658 49.7971 130.739 49.44C130.004 45.3606 130.532 41.1576 132.253 37.3781C133.974 33.5987 136.808 30.4181 140.387 28.2504L131.702 19.6838Z" fill="white"/>
</mask>
<g mask="url(#mask0_7_33)">
<path d="M152.967 0.000302315H105.587V59.8491H152.967V0.000302315Z" fill="url(#paint0_linear_7_33)"/>
</g>
<g clip-path="url(#clip2_7_33)">
<path d="M230.511 18.0833C227.525 11 221.895 5.35596 214.816 2.34616C211.199 0.785224 207.299 -0.0133602 203.36 4.61158e-05C199.419 -0.0191503 195.518 0.779675 191.903 2.34616C184.808 5.34218 179.166 10.9895 176.18 18.0833C174.642 21.7035 173.85 25.5959 173.85 29.5286C173.85 33.4612 174.642 37.3536 176.18 40.9738C179.191 48.0375 184.827 53.6585 191.903 56.6537C195.514 58.234 199.418 59.0338 203.36 59.0002C207.3 59.0244 211.203 58.225 214.816 56.6537L216.134 56.0243C198.949 54.9942 191.331 45.6666 188.753 41.2029C187.724 39.8608 186.858 38.4007 186.175 36.8537C184.229 32.1342 184.229 26.8374 186.175 22.1179C187.118 19.8278 188.477 17.7322 190.185 15.9374C191.861 14.1607 193.865 12.723 196.085 11.7027C198.35 10.6342 200.826 10.0868 203.331 10.1005C205.845 10.0902 208.33 10.6373 210.606 11.7027C212.818 12.7373 214.819 14.1732 216.506 15.9374C218.196 17.7405 219.544 19.8345 220.487 22.1179C221.469 24.4503 221.975 26.9551 221.975 29.4856C221.975 32.0161 221.469 34.5212 220.487 36.8537C219.53 39.1296 218.183 41.2213 216.506 43.0342C214.82 44.8071 212.819 46.2526 210.606 47.2975C208.501 48.2684 206.221 48.8035 203.904 48.871C209.83 51.3405 216.271 52.3229 222.664 51.7323C223.179 51.3031 223.695 50.8454 224.182 50.359C226.868 47.671 229.017 44.4953 230.511 41.0024C232.049 37.3822 232.841 33.4898 232.841 29.5572C232.841 25.6246 232.049 21.7322 230.511 18.112V18.0833Z" fill="#01013F"/>
</g>
<g clip-path="url(#clip3_7_33)">
<path d="M255.632 37.2946C254.412 40.5505 253.811 44.0057 253.86 47.4822V53.004C253.963 54.4255 254.6 55.7551 255.644 56.7257C256.687 57.6964 258.06 58.2361 259.485 58.2361C260.91 58.2361 262.283 57.6964 263.326 56.7257C264.37 55.7551 265.007 54.4255 265.11 53.004V47.4231C265.014 44.9121 265.51 42.4138 266.557 40.1296C267.348 38.4533 268.485 36.9639 269.894 35.7594C266.117 34.7181 262.522 33.1049 259.234 30.9757C257.704 32.8769 256.488 35.0098 255.632 37.2946Z" fill="#01013F"/>
<path d="M297.356 29.4993C296.919 29.0642 296.445 28.6689 295.938 28.3181C291.484 24.8681 286.039 22.9425 280.406 22.8258C278.94 22.7838 277.484 22.5755 276.065 22.2055C274.403 21.7536 272.855 20.9593 271.518 19.8729C269.992 18.6339 268.761 17.0702 267.915 15.2958C266.912 13.0925 266.427 10.6882 266.498 8.268V5.69902C266.498 4.20321 265.904 2.76862 264.846 1.71092C263.788 0.653219 262.354 0.0589437 260.858 0.0589437C259.362 0.0589437 257.928 0.653219 256.87 1.71092C255.812 2.76862 255.218 4.20321 255.218 5.69902V7.47067V8.0319C255.174 11.5229 255.796 14.9902 257.049 18.2487C258.153 21.178 259.887 23.8292 262.128 26.0148C262.571 26.4872 262.984 26.8122 263.486 27.2847C267.914 30.7366 273.345 32.654 278.959 32.7474C280.447 32.7855 281.924 33.0035 283.359 33.3969C285.011 33.8743 286.555 34.6666 287.906 35.7298C289.414 36.9724 290.625 38.536 291.45 40.3065C292.519 42.5855 293.034 45.0846 292.956 47.6004V53.0336C292.956 54.5137 293.544 55.9332 294.59 56.9799C295.637 58.0265 297.056 58.6145 298.537 58.6145C300.017 58.6145 301.436 58.0265 302.483 56.9799C303.53 55.9332 304.118 54.5137 304.118 53.0336V47.4231C304.17 43.9392 303.58 40.4757 302.376 37.2062C301.24 34.3248 299.532 31.7031 297.356 29.4993Z" fill="#01013F"/>
<path d="M305.564 5.63991C305.564 4.13626 304.967 2.69414 303.904 1.6309C302.841 0.56766 301.399 -0.0293684 299.895 -0.0293684C298.392 -0.0293684 296.949 0.56766 295.886 1.6309C294.823 2.69414 294.226 4.13626 294.226 5.63991C294.226 5.63991 294.226 7.70694 294.226 9.36055C294.174 11.3972 293.723 13.4039 292.897 15.2663C292.091 16.9341 290.968 18.4286 289.59 19.666C293.361 20.6714 296.942 22.2873 300.19 24.4497C301.749 22.5911 302.987 20.4853 303.852 18.2191C305.037 14.9452 305.617 11.4836 305.564 8.00234V7.73669V5.63991Z" fill="#01013F"/>
</g>
<defs>
<linearGradient id="paint0_linear_7_33" x1="84.3907" y1="66.0833" x2="160.703" y2="-9.72643" gradientUnits="userSpaceOnUse">
<stop stop-color="#FF1E00"/>
<stop offset="0.786458" stop-color="#FFB700"/>
</linearGradient>
<clipPath id="clip0_7_33">
<rect width="52.5315" height="58.703" fill="white"/>
</clipPath>
<clipPath id="clip1_7_33">
<rect width="11.2209" height="58.6144" fill="white" transform="translate(73.5315)"/>
</clipPath>
<clipPath id="clip2_7_33">
<rect width="59.0573" height="59.0573" fill="white" transform="translate(173.803)"/>
</clipPath>
<clipPath id="clip3_7_33">
<rect width="51.7342" height="58.6439" fill="white" transform="translate(253.86)"/>
</clipPath>
</defs>
</svg>
