<svg width="48" height="61" viewBox="0 0 48 61" fill="none" xmlns="http://www.w3.org/2000/svg">
<mask id="mask0_1_10" style="mask-type:luminance" maskUnits="userSpaceOnUse" x="0" y="0" width="48" height="61">
<path d="M38.108 27.0374C39.5504 26.4705 41.0526 26.0646 42.5865 25.8276V6.05849L29.7163 18.7573L38.108 27.0374ZM5.0457 25.8695C6.55595 26.121 8.03325 26.5371 9.45044 27.1103L17.9166 18.7585L5.0457 6.05849V25.8682V25.8695ZM26.2406 20.0467C25.9163 19.7094 25.7305 19.2653 25.7191 18.8006C25.7077 18.3358 25.8716 17.8834 26.1791 17.5311L43.056 0.880371C43.319 0.60804 43.6675 0.431464 44.0451 0.379335C44.4227 0.327206 44.807 0.402591 45.1356 0.593239H45.1424L45.1744 0.611453L45.1787 0.615092L45.2051 0.632091L45.2138 0.637552C45.247 0.659406 45.2802 0.681867 45.3122 0.706149L45.3214 0.714041L45.3454 0.732255L45.3534 0.738932L45.3786 0.759569C45.445 0.815304 45.5067 0.876204 45.5632 0.941683L45.5835 0.965359L45.5897 0.973251L45.6081 0.997534L45.6161 1.00725L45.6229 1.01453L45.6432 1.04063L45.6666 1.07463L45.6881 1.10498L45.6949 1.11409L45.7115 1.1408L45.7152 1.14747L45.733 1.1754L45.738 1.18389L45.7546 1.21243V1.21668C45.8952 1.4642 45.9687 1.74333 45.9681 2.02708V27.4872C45.9667 27.9054 45.8069 28.308 45.52 28.6158C45.2331 28.9236 44.8398 29.1143 44.4176 29.1506C44.1266 29.1742 43.8602 29.187 43.5654 29.2155L43.4941 29.2252H43.4848C41.1101 29.549 38.829 30.3542 36.7851 31.5902C34.7411 32.8261 32.9785 34.4661 31.6082 36.4068C30.238 38.3476 29.2896 40.5471 28.8228 42.8671C28.3561 45.1871 28.381 47.5773 28.8961 49.8873C28.9644 50.1908 29.0407 50.4901 29.1238 50.7875L43.259 36.8394L39.6726 33.3015C40.8113 32.765 42.0107 32.3644 43.2455 32.1081L46.8467 35.6599C47.1635 35.9731 47.3414 36.3975 47.3414 36.84C47.3414 37.2825 47.1635 37.7069 46.8467 38.0201L25.0101 59.56C24.8531 59.715 24.6668 59.838 24.4617 59.9219C24.2565 60.0058 24.0366 60.049 23.8146 60.049C23.5925 60.049 23.3726 60.0058 23.1675 59.9219C22.9624 59.838 22.776 59.715 22.6191 59.56L0.786783 38.0195C0.629693 37.8645 0.505086 37.6806 0.420068 37.4781C0.33505 37.2756 0.29129 37.0586 0.29129 36.8394C0.29129 36.6202 0.33505 36.4032 0.420068 36.2007C0.505086 35.9983 0.629693 35.8143 0.786783 35.6593L4.3369 32.1615C5.51097 32.4277 6.65059 32.8246 7.73382 33.3446L7.85687 33.4053L4.37444 36.8406L18.314 50.5927C18.4026 50.2643 18.4802 49.9328 18.5497 49.5959C18.7755 48.4745 18.8878 47.3337 18.885 46.1904C18.8842 42.2318 17.4934 38.3957 14.9491 35.3348C12.4049 32.2739 8.86443 30.1771 4.93002 29.4013C4.56085 29.3278 4.17939 29.2671 3.79854 29.2192L3.76346 29.2143C3.61334 29.1955 3.44045 29.1718 3.29525 29.1603C2.85815 29.1434 2.4446 28.9604 2.14107 28.6496C1.83755 28.3388 1.66756 27.9243 1.66663 27.4927V2.03194C1.66644 1.69914 1.76715 1.37388 1.95582 1.098C2.14448 0.822121 2.41248 0.608223 2.72534 0.483812C3.0382 0.359401 3.38162 0.330167 3.71146 0.399861C4.0413 0.469556 4.34246 0.634994 4.57624 0.87491L21.4187 17.4916C21.6271 17.6974 21.7774 17.9534 21.8546 18.2342C21.9318 18.515 21.9332 18.8109 21.8586 19.0924C21.8134 19.4604 21.6436 19.8026 21.3769 20.0637L12.6135 28.7111C16.1488 30.8881 18.9421 34.0601 20.6331 37.8181C22.3242 41.5761 22.8354 45.7477 22.101 49.795C22.1796 50.1524 22.3796 50.4727 22.6679 50.7026C22.9562 50.9325 23.3155 51.0584 23.6861 51.0593C24.0568 51.0602 24.4167 50.9362 24.7062 50.7077C24.9957 50.4792 25.1973 50.1599 25.2777 49.8029C24.5433 45.7235 25.0709 41.5204 26.7917 37.741C28.5126 33.9616 31.347 30.781 34.9258 28.6133L26.2406 20.0467Z" fill="white"/>
</mask>
<g mask="url(#mask0_1_10)">
<path d="M47.5062 0.363173H0.125977V60.2119H47.5062V0.363173Z" fill="url(#paint0_linear_1_10)"/>
</g>
<defs>
<linearGradient id="paint0_linear_1_10" x1="-21.0705" y1="66.4462" x2="55.242" y2="-9.36356" gradientUnits="userSpaceOnUse">
<stop stop-color="#5047A4"/>
<stop offset="0.786458" stop-color="#CD5AA9"/>
</linearGradient>
</defs>
</svg>
