<?xml version="1.0" encoding="utf-8"?>
<!-- Generator: Adobe Illustrator 25.4.1, SVG Export Plug-In . SVG Version: 6.00 Build 0)  -->
<svg version="1.1" id="Layer_1" xmlns="http://www.w3.org/2000/svg" xmlns:xlink="http://www.w3.org/1999/xlink" x="0px" y="0px"
	 viewBox="0 0 764.7 983.2" style="enable-background:new 0 0 764.7 983.2;" xml:space="preserve">
<style type="text/css">

		.st0{clip-path:url(#SVGID_00000058588180334074843790000014369851565456710804_);fill:url(#SVGID_00000021814436593938367390000009987132912451148673_);}
</style>
<g>
	<defs>
		<path id="SVGID_1_" d="M614.6,439.4c23.1-9.2,47.5-16,72.8-19.9V284.2V93.8L478.2,303L614.6,439.4z M77.3,420.2
			c24.9,4.2,48.9,11.1,71.6,20.4L286.5,303L77.3,93.8v190.3V420.2z M421.7,324.3c-3.1-3.1-5.3-6.8-6.6-10.7
			c-4.6-10.1-2.7-22.4,5.6-30.8L695,8.5c5-5.2,12.1-8.5,19.9-8.5c5.1,0,9.8,1.4,13.9,3.8l0.1,0.1l0.5,0.3l0.1,0.1l0.4,0.3l0.1,0.1
			c0.5,0.4,1.1,0.7,1.6,1.1l0,0l0.2,0.1l0.4,0.3l0.1,0.1l0.4,0.3c1.1,0.9,2.1,1.9,3,3l0.3,0.4l0.1,0.1l0.3,0.4l0.1,0.2l0.1,0.1
			l0.3,0.4l0,0l0.4,0.6l0,0l0.4,0.5l0.1,0.2l0.3,0.4l0.1,0.1l0.3,0.5l0.1,0.1l0.3,0.5l0,0.1c2.2,4,3.5,8.5,3.5,13.4v256.7v148.2v0.2
			v14.4c0,14.4-11.1,26.2-25.2,27.4c-4.7,0.4-9.1,0.6-13.9,1.1l-1.2,0.2v0l-0.1,0c-61,8.3-117.5,36.3-161.1,80
			c-51,51-82.6,121.5-82.6,199.4c0,20.9,2.3,41.3,6.6,60.9c1.1,5,2.4,9.9,3.7,14.8l229.7-229.8l-58.3-58.3
			c18.5-8.8,38-15.4,58.1-19.7l58.5,58.5c10.7,10.7,10.7,28.1,0,38.9L401.8,975.2c-10.7,10.7-28.1,10.7-38.9,0L8.1,620.3
			c-10.7-10.7-10.7-28.1,0-38.9l57.6-57.7c19.1,4.4,37.6,10.9,55.2,19.5l2,1l-56.6,56.6l226.6,226.5c1.4-5.4,2.7-10.9,3.8-16.4
			c3.6-17.8,5.5-36.5,5.5-56.1c0-77.9-31.6-148.4-82.6-199.4c-38.7-38.6-88.5-66.1-144.2-77.2c-6.1-1.2-12.2-2.2-18.4-3h0l-0.6-0.1
			c-2.4-0.3-5.2-0.7-7.6-0.9c-14.7-0.5-26.5-12.7-26.5-27.5v-14.3v-0.2v-16.9V284.2V27.5C22.3,12.3,34.6,0,49.8,0
			c7.8,0,14.8,3.2,19.8,8.4l273.7,273.7c7.1,7.1,9.5,17.2,7.2,26.4c-0.7,5.9-3.3,11.5-7.8,16L200.2,467c21.8,13.6,42,29.7,60.1,47.8
			c61.4,61.4,99.4,146.3,99.4,240.1c0,20-1.8,39.8-5.3,59.4c2.6,12.1,13.4,20.8,25.8,20.8c12.4,0,23.1-8.6,25.8-20.7
			c-3.5-19.3-5.2-39.3-5.2-59.6c0-93.7,38-178.6,99.4-240.1c18.8-18.8,39.8-35.4,62.6-49.4L421.7,324.3z"/>
	</defs>
	<clipPath id="SVGID_00000016777901030437594820000012518557856010095500_">
		<use xlink:href="#SVGID_1_"  style="overflow:visible;"/>
	</clipPath>

		<linearGradient id="SVGID_00000152977016171269837500000016575549715885835949_" gradientUnits="userSpaceOnUse" x1="-124.7" y1="1046.3293" x2="886.7646" y2="-57.5517">
		<stop  offset="9.864959e-03" style="stop-color:#FF1E00"/>
		<stop  offset="0.3174" style="stop-color:#FF5700"/>
		<stop  offset="0.6317" style="stop-color:#FF8B00"/>
		<stop  offset="0.8692" style="stop-color:#FFAB00"/>
		<stop  offset="1" style="stop-color:#FFB700"/>
	</linearGradient>

		<rect x="-2.7" style="clip-path:url(#SVGID_00000016777901030437594820000012518557856010095500_);fill:url(#SVGID_00000152977016171269837500000016575549715885835949_);" width="770.1" height="985.9"/>
</g>
</svg>
